<?xml version="1.0" encoding="UTF-8" standalone="no"?>
<!-- Created with Inkscape (http://www.inkscape.org/) -->

<svg
   version="1.1"
   id="svg1"
   width="1107.509"
   height="792.24042"
   viewBox="0 0 1107.509 792.24042"
   xmlns="http://www.w3.org/2000/svg"
   xmlns:svg="http://www.w3.org/2000/svg">
  <defs
     id="defs1" />
  <g
     id="g1"
     transform="translate(-21.277018,-6.4187765)">
    <path
       style="fill:#000000"
       d="M 289.66667,798.33333 C 289.3,797.96667 289,797.20167 289,796.63333 c 0,-0.6266 0.46577,-0.56756 1.18333,0.15 0.65084,0.65084 0.95084,1.41584 0.66667,1.7 -0.28417,0.28417 -0.81667,0.21667 -1.18333,-0.15 z M 864.75,784.78047 c -2.0625,-1.19547 -3.75,-2.88765 -3.75,-3.7604 0,-0.87275 2.7,-6.95678 6,-13.52007 3.3,-6.56329 6.00188,-12.39827 6.00419,-12.96663 0.002,-0.56835 1.11074,-3.21442 2.46319,-5.88015 1.35246,-2.66574 4.3181,-10.76574 6.59031,-18 2.27221,-7.23427 4.77315,-15.17822 5.55763,-17.65322 2.43195,-7.67262 6.37756,-21.97838 9.44634,-34.25 6.71608,-26.85665 8.91852,-35.79631 11.35155,-46.07571 1.40928,-5.95413 2.78337,-11.18335 3.05354,-11.62048 0.66845,-1.08158 3.42316,-11.22955 5.03651,-18.55381 4.43507,-20.13424 7.2401,-27.59692 13.4789,-35.86015 5.65704,-7.49269 11.82967,-8.59701 14.99492,-2.68267 2.18059,4.07446 0.73821,13.94299 -2.40597,16.46132 -2.20277,1.76431 -7.10726,11.63506 -8.98418,18.0815 -0.96081,3.3 -2.12786,7.125 -2.59345,8.5 -0.46558,1.375 -1.38623,4.975 -2.04589,8 -0.65966,3.025 -2.00767,8.2 -2.99558,11.5 -0.98791,3.3 -2.73351,9.825 -3.87911,14.5 -1.14561,4.675 -3.67879,14.35 -5.62929,21.5 -4.43604,16.26125 -10.00062,37.52471 -12.56145,48 -2.56386,10.48767 -11.9626,38.04475 -14.75574,43.26379 -0.58083,1.08528 -0.77189,2.25741 -0.42457,2.60473 C 889.04917,756.71583 888.80833,757 888.16667,757 887.525,757 887,757.48514 887,758.07809 c 0,2.14674 -11.23879,23.35452 -13.83299,26.10308 -3.17647,3.36549 -3.5934,3.39518 -8.41701,0.5993 z M 1115.5,759 c -0.3399,-0.55 0.083,-1 0.941,-1 0.8574,0 1.559,0.45 1.559,1 0,0.55 -0.4234,1 -0.941,1 -0.5175,0 -1.2191,-0.45 -1.559,-1 z m -327,-22 c -0.33992,-0.55 -0.14148,-1 0.44098,-1 0.58246,0 1.05902,0.45 1.05902,1 0,0.55 -0.19844,1 -0.44098,1 -0.24254,0 -0.7191,-0.45 -1.05902,-1 z M 278,729.94098 c 0,-0.58246 0.45,-0.7809 1,-0.44098 0.55,0.33992 1,0.81648 1,1.05902 0,0.24254 -0.45,0.44098 -1,0.44098 -0.55,0 -1,-0.47656 -1,-1.05902 z m 21.54271,-8.87188 c -0.68308,-1.10523 0.8944,-2.29865 1.81781,-1.37525 0.95079,0.95079 0.77359,2.30615 -0.3015,2.30615 -0.51754,0 -1.19988,-0.41891 -1.51631,-0.9309 z M 260.75,718.33772 c 0.6875,-0.27741 1.8125,-0.27741 2.5,0 0.6875,0.27741 0.125,0.50439 -1.25,0.50439 -1.375,0 -1.9375,-0.22698 -1.25,-0.50439 z m 36.88948,-0.0316 C 296.40327,717.06994 297.01675,714 298.5,714 c 0.825,0 1.5,0.87344 1.5,1.94098 0,2.08723 -1.31793,3.40776 -2.36052,2.36517 z M 261,710 c 0,-0.55 0.47656,-1 1.05902,-1 0.58246,0 0.7809,0.45 0.44098,1 -0.33992,0.55 -0.81648,1 -1.05902,1 C 261.19844,711 261,710.55 261,710 Z m 36.65799,-21.67534 C 296.28895,686.95562 297.07834,685 299,685 c 1.1,0 2,0.3949 2,0.87756 0,1.31134 -2.58498,3.20413 -3.34201,2.4471 z M 294,686.94098 c 0,-0.58246 0.45,-0.7809 1,-0.44098 0.55,0.33992 1,0.81648 1,1.05902 0,0.24254 -0.45,0.44098 -1,0.44098 -0.55,0 -1,-0.47656 -1,-1.05902 z M 288.5,647 c -0.33992,-0.55 -0.14148,-1 0.44098,-1 0.58246,0 1.05902,0.45 1.05902,1 0,0.55 -0.19844,1 -0.44098,1 -0.24254,0 -0.7191,-0.45 -1.05902,-1 z m 235.96574,-77.86513 c -3.69453,-0.96681 -5.31396,-1.88824 -9.06826,-5.15972 -4.66521,-4.06525 -5.57636,-5.64433 -6.89047,-11.94158 -1.10609,-5.30039 -1.05839,-6.12959 0.43013,-7.47668 2.3018,-2.0831 8.13154,-1.20158 12.89331,1.9496 6.12648,4.05432 17.25259,5.22841 29.64814,3.12865 9.96563,-1.68814 23.8031,-5.55486 37.02141,-10.3452 8.28401,-3.00214 10.01361,-3.08911 14.94026,-0.75126 5.4759,2.59848 7.12917,8.52569 4.04281,14.49405 -1.73539,3.35588 -5.2292,5.3923 -10.98307,6.40167 -2.2,0.38593 -8.725,2.21494 -14.5,4.06447 -5.775,1.84953 -12.975,3.88896 -16,4.53208 -6.61843,1.40708 -37.26326,2.22157 -41.53426,1.10392 z M 276,567.6324 c -6.72969,-1.95756 -10.73623,-4.316 -15.60768,-9.18745 C 256.24984,554.30247 256,553.73455 256,548.46057 c 0,-5.46792 1.19331,-9.22201 3.3997,-10.69526 0.60517,-0.40408 3.16398,-0.74158 5.68626,-0.75 4.13842,-0.0138 4.95828,0.39944 8.40125,4.23469 l 3.81531,4.25 16.09874,-0.0633 c 13.26421,-0.0522 17.41928,-0.43765 23.59874,-2.18923 4.125,-1.16924 10.65,-3.01299 14.5,-4.09723 7.71201,-2.17185 16.6218,-5.25735 48,-16.6226 27.45187,-9.94312 38.01537,-13.12406 55.15485,-16.60852 14.36527,-2.92046 38.05614,-6.27508 44.23488,-6.26365 4.3106,0.008 6.37899,2.50759 5.02401,6.07144 -0.52694,1.38596 -0.677,4.01816 -0.33347,5.84934 0.51709,2.75631 0.17541,3.74572 -1.98499,5.7479 -2.82232,2.61564 -5.47713,3.24982 -28.09528,6.71133 -7.7,1.17842 -16.475,2.74369 -19.5,3.47837 -14.09269,3.42272 -35.99733,10.45801 -43.65113,14.01978 -1.73312,0.80653 -3.48351,1.46641 -3.88976,1.46641 -1.00385,0 -23.21669,7.92329 -26.95911,9.61629 -4.54825,2.05753 -29.77035,10.19091 -40.5,13.06005 -11.55007,3.08852 -35.38013,4.17254 -43,1.95606 z m 603.22733,-28.80507 c -1.60356,-1.60356 -1.54812,-3.38412 0.29908,-9.60431 1.12167,-3.77708 1.91714,-4.99004 3,-4.57451 1.96301,0.75328 1.88524,4.25629 -0.1115,5.02252 -1.14766,0.44039 -1.44361,1.46662 -1.0724,3.71861 0.69081,4.19096 -0.44415,7.10872 -2.11518,5.43769 z m -483.8827,-29.65039 c -6.38704,-5.65165 -7.5843,-10.296 -8.1202,-31.49922 -0.43767,-17.31668 0.76935,-40.4511 2.80059,-53.67772 0.54902,-3.575 1.901,-14.375 3.0044,-24 1.1034,-9.625 2.43561,-19.525 2.96047,-22 0.52486,-2.475 2.11057,-12.375 3.5238,-22 3.49469,-23.80118 8.35858,-55.94728 8.92704,-59 1.14837,-6.16691 2.77243,-20.13567 4.65056,-40 1.81381,-19.18418 1.9602,-25.64693 1.359,-60 -0.37057,-21.175 -0.80027,-40.1875 -0.95489,-42.25 -0.15461,-2.0625 -0.32933,-8.475 -0.38826,-14.25 L 413,130 h -4.55902 c -2.80601,0 -4.31969,-0.38723 -3.93661,-1.00706 0.34231,-0.55389 -0.0811,-1.27703 -0.94099,-1.60699 C 402.70352,127.05599 402,126.33602 402,125.78602 c 0,-0.55 0.7875,-0.70019 1.75,-0.33376 1.31688,0.50134 1.4672,0.38114 0.60736,-0.48566 -0.85238,-0.85927 -1.67797,-0.86538 -3.25,-0.0241 -1.51281,0.80963 -2.67162,0.82584 -4.10736,0.0575 -1.1,-0.5887 -2,-0.65963 -2,-0.15763 0,1.30059 2.76013,3.4221 3.7062,2.84868 0.43659,-0.26462 1.44465,0.22223 2.24014,1.08189 1.28778,1.39166 1.18385,1.49437 -0.94797,0.93689 -1.31686,-0.34437 -2.92221,-0.188 -3.56743,0.34748 -0.76383,0.63392 -2.00312,0.6113 -3.55203,-0.0649 -2.24483,-0.97993 -2.2184,-1.00652 0.46896,-0.47184 2.07316,0.41247 2.71924,0.21471 2.375,-0.727 -0.26008,-0.71149 -1.01303,-1.16982 -1.67323,-1.0185 -0.73383,0.16819 -0.98293,-0.4148 -0.64093,-1.5 0.48322,-1.53332 -0.15353,-1.79628 -4.67464,-1.93049 -3.1827,-0.0945 -4.4712,0.13363 -3.28762,0.582 1.86778,0.70756 1.85961,0.76007 -0.20205,1.29921 -1.18991,0.31117 -2.33448,0.0515 -2.56534,-0.582 -0.22926,-0.62911 -1.01585,0.13268 -1.74797,1.69286 -1.05094,2.2396 -1.55214,2.55534 -2.38111,1.5 C 377.39595,127.36753 374,126.75296 374,128.01329 c 0,1.47643 5.69173,2.89498 6.8736,1.71311 0.60119,-0.60119 1.40057,-0.78557 1.7764,-0.40973 1.51539,1.51539 -1.26693,2.12962 -12.44175,2.74665 -10.45274,0.57716 -25.49923,-0.085 -35.1426,-1.54666 -6.39075,-0.96862 -18.73306,-5.23321 -22.25342,-7.68914 -3.83131,-2.67286 -9.06069,-12.66025 -8.28726,-15.82752 1.04434,-4.27673 3.36996,-7 5.97785,-7 2.92533,0 10.49718,2.88529 10.49718,4 0,1.30398 7.93063,4.05307 14.91734,5.17097 6.34683,1.01552 51.44945,1.40772 57.58266,0.50072 1.65,-0.24401 6.7125,-0.49496 11.25,-0.55767 L 413,109 l 8.1e-4,-2.75 c 10e-4,-3.81859 3.37094,-12.318907 5.31489,-13.406801 C 422.6467,90.41945 430,97.653401 430,104.33786 c 0,2.5972 0.15245,2.66253 6.25,2.67797 12.94419,0.0328 32.16029,2.05899 62.68285,6.60949 16.34636,2.43702 30.36753,8.19519 32.5674,13.37468 0.35039,0.825 1.04094,5.0266 1.53454,9.33689 0.74489,6.50466 0.63084,8.24379 -0.67089,10.23048 -1.88777,2.88111 -2.94055,2.45589 -9.4675,-3.82389 -4.15609,-3.99872 -5.51699,-4.63599 -14,-6.55581 -19.41055,-4.39288 -58.34241,-7.94419 -73.04813,-6.66336 l -7.65173,0.66645 -0.48304,3.65462 c -0.26567,2.01004 -0.28848,9.72962 -0.0507,17.15462 0.67035,20.9313 0.64653,97.29453 -0.0314,100.5727 -0.33294,1.61001 -1.30529,11.81929 -2.16078,22.68728 -1.635,20.77086 -3.25696,32.62234 -11.87096,86.74002 -5.29706,33.27895 -9.55391,68.95321 -11.53877,96.69991 -0.8446,11.80696 -0.008,34.04188 1.4112,37.48935 0.38237,0.9291 0.27641,2.43764 -0.23547,3.35232 -0.52405,0.93642 -0.58951,3.47531 -0.14982,5.81074 0.66723,3.54401 0.46304,4.46452 -1.40298,6.32462 L 399.5,512.85387 Z M 380,124.5 c 1.35129,-1.62821 1.02807,-1.83174 -1.41821,-0.89301 -0.86999,0.33384 -1.58179,1.00884 -1.58179,1.5 0,1.38323 1.62035,1.05539 3,-0.60699 z m 10.41821,-1.10699 c 2.22371,-0.85331 1.96774,-4.00927 -0.46328,-5.71202 -1.75481,-1.22912 -1.8204,-1.51863 -0.46214,-2.03985 0.92427,-0.35468 1.81973,0.01 2.15205,0.87572 0.31303,0.81573 1.26485,1.48314 2.11516,1.48314 1.14136,0 0.94244,-0.52348 -0.76,-2 -2.5088,-2.17587 -6.47966,-2.65095 -7.55909,-0.90438 -0.37243,0.60259 -2.19898,0.91795 -4.05902,0.7008 C 379.52185,115.57927 378,115.76124 378,116.2008 c 0,0.43956 0.68912,0.7992 1.53138,0.7992 0.84227,0 1.754,0.58012 2.02609,1.28916 0.61877,1.6125 4.17217,1.95732 5.07735,0.4927 0.40368,-0.65317 0.21095,-0.80458 -0.48031,-0.37735 -0.68411,0.4228 -1.15451,0.0783 -1.15451,-0.84549 0,-1.90519 0.92315,-1.93249 3.34312,-0.0989 1.72543,1.30735 1.59771,1.526 -2,3.424 -3.13976,1.65641 -3.43133,2.03556 -1.59312,2.07166 1.2375,0.0243 2.25,-0.4058 2.25,-0.9558 0,-0.55 0.43588,-1 0.96862,-1 0.53273,0 0.70959,0.675 0.39301,1.5 -0.63377,1.65158 -0.29901,1.79694 2.05658,0.89301 z m 12.55283,-1.08806 c 0.25907,-0.22753 -0.19093,-0.83234 -1,-1.34401 -1.1034,-0.69781 -1.14079,-0.93414 -0.14961,-0.94563 0.99429,-0.0115 0.9343,-0.40244 -0.24233,-1.57907 C 399.50197,116.35911 397.65182,117.4809 399,120 c 0.68794,1.28542 0.66754,2.08744 -0.0646,2.53993 -0.59355,0.36683 -1.32026,-0.29565 -1.632,-1.48774 -0.33766,-1.29122 -1.20892,-2.02445 -2.18269,-1.83692 -2.21987,0.42751 -2.09293,3.36402 0.12929,2.99089 0.9625,-0.16161 1.75,0.18447 1.75,0.76906 0,0.9642 4.7123,0.43523 5.97104,-0.67027 z m -23.55449,-1.94808 c 0.89581,-2.33443 -0.0512,-2.86511 -1.86893,-1.04735 -1.91616,1.91617 -1.96066,2.69048 -0.15461,2.69048 0.76616,0 1.67675,-0.73941 2.02354,-1.64313 z M 405,118 c -0.825,-0.53316 -1.95,-0.96937 -2.5,-0.96937 -0.55,0 -0.325,0.43621 0.5,0.96937 0.825,0.53316 1.95,0.96937 2.5,0.96937 0.55,0 0.325,-0.43621 -0.5,-0.96937 z m -8,-3 c 0,-0.55 -0.19844,-1 -0.44098,-1 -0.24254,0 -0.7191,0.45 -1.05902,1 -0.33992,0.55 -0.14148,1 0.44098,1 0.58246,0 1.05902,-0.45 1.05902,-1 z m 7.72917,-0.60417 c -0.33229,-0.33229 -1.1948,-0.36781 -1.91667,-0.0789 -0.79773,0.31922 -0.56078,0.55618 0.60417,0.60416 1.05416,0.0434 1.64479,-0.19292 1.3125,-0.52522 z m 342.21458,386.59453 c -3.21313,-1.64432 -9.96048,-3.69858 -16,-4.87129 -5.74406,-1.11534 -16.96875,-3.59196 -24.94375,-5.5036 -7.975,-1.91164 -16.075,-3.71713 -18,-4.01218 -9.38941,-1.43917 -14.50892,-2.75388 -16.0086,-4.11107 -2.99051,-2.70637 -5.35819,-18.56392 -3.1418,-21.04222 0.46728,-0.5225 1.87479,-4.21585 3.1278,-8.20745 2.55038,-8.12452 9.63634,-19.18927 16.87042,-26.34317 5.52255,-5.46135 25.96991,-23.16392 31.65218,-27.40328 2.2,-1.64135 4.35986,-3.54944 4.79969,-4.24019 1.15596,-1.81543 7.63823,-1.53921 11.63168,0.49564 1.98079,1.00931 4.25041,3.35064 5.3688,5.53844 1.78984,3.5013 1.81411,3.92625 0.31862,5.57874 -0.89033,0.98382 -1.61879,2.26072 -1.61879,2.83757 0,0.57684 -0.675,1.60901 -1.5,2.2937 -2.81564,2.33677 -1.85155,7.21475 4.94104,25 1.99555,5.225 4.28767,10.91801 5.09361,12.65113 0.80594,1.73312 1.46535,3.45071 1.46535,3.81688 0,0.36616 1.95839,4.79815 4.35197,9.84887 C 762.73032,478.88597 766,487.22625 766,490.47779 c 0,1.75353 -3.66672,8.26961 -6.34309,11.27221 -2.62354,2.94333 -5.85448,2.75028 -12.71316,-0.75964 z M 737.66064,472.75 c -6.48209,-14.64317 -14.27619,-36.44982 -15.6873,-43.89058 -0.54311,-2.86378 -1.19127,-5.41069 -1.44037,-5.65978 -0.38291,-0.38291 -5.91416,3.88655 -12.69674,9.80036 -0.9462,0.825 -4.55893,3.975 -8.0283,7 -9.05813,7.89795 -12.57341,12.10884 -14.5415,17.41903 -2.09877,5.66278 -1.69606,6.05586 7.13084,6.9602 3.40567,0.34892 9.547,1.57822 13.64742,2.73177 7.03025,1.97778 27.85992,6.56615 30.8123,6.78734 0.74634,0.0559 1.10799,-0.46084 0.80365,-1.14834 z m -516.76237,15.9278 c -3.54707,-4.33245 -4.42948,-6.20831 -6.19887,-13.1778 -4.2955,-16.91968 -8.49004,-66.72888 -10.65283,-126.5 -1.14347,-31.6011 -1.92078,-45.20755 -2.62273,-45.90949 -0.24106,-0.24107 -4.14754,0.74805 -8.68107,2.19803 -4.53352,1.44998 -9.59277,2.92095 -11.24277,3.26883 -1.65,0.34787 -4.8,1.27526 -7,2.06086 -5.33803,1.90616 -26.91585,6.23307 -37.5,7.51973 -11.93979,1.45145 -43.379824,1.44004 -49.5,-0.018 -2.75,-0.65513 -6.901844,-1.45746 -9.22632,-1.78296 -3.96495,-0.55521 -4.292676,-0.41386 -5.29929,2.28558 -0.590134,1.58256 -2.118007,4.90238 -3.395273,7.37738 -7.224419,13.99899 -23.877478,57.75531 -29.077167,76.40097 -1.658423,5.94697 -1.935557,7.95107 -2.982214,21.56599 C 36.875144,432.35181 35.087358,436 31.62297,436 c -3.239994,0 -7.244052,-4.0165 -8.600566,-8.62729 -2.036466,-6.92195 -2.326145,-18.34097 -0.682891,-26.91928 1.341575,-7.00344 7.105002,-26.08665 9.650435,-31.95343 0.47726,-1.1 1.833495,-4.69454 3.013857,-7.98786 1.180361,-3.29332 2.502527,-6.44332 2.938148,-7 0.43562,-0.55668 1.741833,-3.58964 2.902695,-6.73993 1.160863,-3.15028 2.5503,-6.52528 3.087638,-7.5 0.537338,-0.97471 2.950333,-6.49721 5.36221,-12.27221 9.64604,-23.09647 8.776528,-20.09425 6.615447,-22.84162 -2.098707,-2.66807 -2.471145,-7.55211 -0.892518,-11.70421 0.952581,-2.50548 1.299445,-2.63374 5.442454,-2.01246 5.369385,0.80519 4.972507,1.31539 13.567719,-17.44171 12.689961,-27.69296 16.756119,-36.15042 30.067132,-62.53848 16.19839,-32.11207 23.71491,-46.3894 25.55479,-48.54026 C 130.39228,161.05295 131,160.044 131,159.67915 131,158.48401 147.02647,129.69836 152.5347,121 c 10.09976,-15.94912 17.26243,-24.814719 25.04453,-30.998865 8.48126,-6.73975 11.14471,-7.772336 15.44906,-5.989415 1.64421,0.681054 4.11781,1.23828 5.49688,1.23828 3.21462,0 7.06517,4.514921 8.54844,10.023375 4.47418,16.615825 4.73362,20.426855 5.44473,79.979105 0.30048,25.16386 0.72635,46.31386 0.94636,47 0.22002,0.68614 0.6595,10.69752 0.97664,22.24752 0.64656,23.54736 1.27055,31.58831 2.55182,32.8836 0.48073,0.48599 4.3407,0.93599 8.57773,1 7.62249,0.11517 7.70677,0.14522 7.99649,2.85059 0.16104,1.5038 -0.0835,2.96675 -0.54341,3.25099 -0.45991,0.28425 -0.62576,1.32156 -0.36855,2.30514 0.58974,2.25518 -2.24048,4.84739 -9.50937,8.70968 l -5.64605,3 0.31711,19.5 c 0.29546,18.16826 1.81204,48.94202 4.16431,84.5 1.7838,26.96492 4.05926,47.7804 6.5831,60.22107 3.01968,14.88476 3.17839,26.81097 0.37676,28.31036 -3.04932,1.63194 -5.32521,0.96595 -8.04301,-2.35363 z M 129,299.01324 c 21.71053,-3.07728 50.79304,-9.33542 65.57334,-14.11044 4.5264,-1.46232 6.41862,-2.56804 6.39946,-3.73952 C 200.9578,280.24848 200.51482,270.275 199.98833,259 198.94851,236.73219 198.29764,209.58803 197.51804,155.97696 196.97043,118.31957 195.63624,106 192.10561,106 c -4.62021,0 -27.92716,30.23878 -39.10996,50.74185 -0.8274,1.51698 -2.82882,5.00815 -4.4476,7.75815 -1.61879,2.75 -4.80087,8.6 -7.07129,13 -2.27043,4.4 -5.2281,9.8 -6.5726,12 -2.64195,4.32301 -18.98301,37.0725 -26.19599,52.5 -2.4429,5.225 -7.37838,15.575 -10.967736,23 -14.781152,30.57654 -15.467736,32.57612 -11.490434,33.46441 6.742626,1.50588 33.56822,1.85027 42.75,0.54883 z m 992.6464,165.97995 c -2.1195,-1.05615 -4.5552,-2.49918 -5.4126,-3.20673 -1.2138,-1.00158 -1.6504,-1.01499 -1.9717,-0.0605 -0.266,0.79021 -2.2519,-0.13239 -5.5874,-2.59586 -2.8461,-2.10197 -6.7497,-4.6204 -8.6747,-5.5965 -1.925,-0.9761 -4.175,-2.34821 -5,-3.04914 -2.5154,-2.13708 -24.2212,-13.05277 -30.5501,-15.36338 -3.2724,-1.19475 -6.8499,-2.60038 -7.9499,-3.12363 -1.1,-0.52324 -5.15,-2.11159 -9,-3.52966 -6.5112,-2.39825 -10.1542,-3.80406 -24.5,-9.45422 -27.963,-11.01336 -50.37942,-29.02972 -60.13991,-48.3352 -5.44249,-10.76483 -6.57217,-17.28012 -4.00316,-23.08778 2.28711,-5.1704 6.09189,-8.07119 9.4733,-7.2225 3.86381,0.96975 7.45158,4.43089 8.70484,8.3976 0.64892,2.0539 2.17184,5.30936 3.38427,7.23436 7.22781,11.47578 10.57547,15.96167 14.7722,19.79489 2.5862,2.36219 4.98146,5.17469 5.32266,6.25 0.3413,1.07531 1.0899,1.95511 1.6635,1.95511 1.4972,0 10.8223,6.17671 10.8223,7.16841 0,0.45738 0.718,0.83159 1.5956,0.83159 0.8776,0 2.7901,0.83672 4.25,1.85938 4.5055,3.15607 16.951,9.045 29.0752,13.75776 20.9769,8.15383 36.9734,15.76613 48.0829,22.88132 7.8941,5.05587 22.2874,15.74206 24.9345,18.51251 7.8658,8.23218 9.446,12.12031 6.3943,15.73313 l -1.8325,2.16937 z M 834.45,427.10534 c -1.64364,-1.54788 -23.53474,-12.72961 -33.45,-17.08589 -5.225,-2.2956 -12.2,-5.45959 -15.5,-7.03108 -8.86831,-4.22317 -11.57381,-5.21878 -16,-5.88791 l -4,-0.60471 0.0969,-6.27042 c 0.0766,-4.95681 0.54793,-6.75055 2.25,-8.56232 1.18423,-1.26055 2.15314,-2.65576 2.15314,-3.10047 0,-0.44471 1.99054,-3.59805 4.42342,-7.00743 4.12797,-5.78483 15.11396,-16.41354 27.29355,-26.40593 4.10524,-3.36802 5.33862,-5.06527 5.78787,-7.96464 1.69374,-10.93117 3.08279,-16.05146 5.25189,-19.35948 3.18572,-4.85843 4.16855,-5.08564 8.03519,-1.85763 3.0339,2.53281 3.33369,3.34734 4.27231,11.60785 0.58256,5.12686 2.87151,14.81318 5.41247,22.90431 2.42166,7.71122 5.12801,17.62041 6.01413,22.02041 1.88708,9.3703 7.01986,25.70548 9.42649,30 0.92465,1.65 2.70556,5.5426 3.95758,8.65022 2.21405,5.49549 2.2264,5.71163 0.45075,7.89274 -6.9301,8.51253 -7.48737,8.95704 -11.22924,8.95704 -2.03303,0 -4.12391,-0.40259 -4.64641,-0.89466 z m -16.17711,-43.05243 c -1.71469,-9.30431 -6.51196,-24.29927 -7.92459,-24.77014 -0.97845,-0.32615 -21.58267,16.92034 -22.1121,18.50864 -0.15355,0.46065 2.31799,2.01176 5.49231,3.4469 8.61155,3.89339 24.68311,10.68173 25.39022,10.72437 0.3403,0.0205 -0.0403,-3.53887 -0.84584,-7.90977 z M 660.42476,357.87826 c -0.42238,-0.68342 -0.92093,-2.39812 -1.10789,-3.81043 -0.18696,-1.4123 -0.61136,-4.52596 -0.94311,-6.91924 -0.33174,-2.39328 -0.13656,-5.31828 0.43374,-6.5 0.5703,-1.18172 1.2953,-3.34549 1.61111,-4.80837 0.79188,-3.66808 13.05571,-18.59577 29.22377,-35.57157 7.45481,-7.82724 14.40959,-15.90914 15.45506,-17.95977 1.04547,-2.05063 2.57624,-4.10639 3.40171,-4.56834 0.82547,-0.46196 1.50085,-1.9321 1.50085,-3.26699 0,-4.40174 4.25356,-13.28887 6.5725,-13.73216 4.00056,-0.76476 8.4275,4.61926 8.4275,10.24947 0,1.7173 1.56082,6.8929 3.46849,11.50134 4.11475,9.94018 14.16434,44.04471 15.93158,54.06582 0.68459,3.88192 0.91101,7.70692 0.50318,8.5 -0.40784,0.79309 -1.67596,3.57042 -2.81804,6.17184 -2.47281,5.63251 -5.23289,6.72691 -12.02616,4.76849 -7.80787,-2.25092 -11.52814,-2.27049 -29.81068,-0.1568 -25.0397,2.8949 -38.85649,3.60154 -39.82361,2.03671 z m 39.90392,-24.81937 c 3.75577,-0.59017 10.61827,-1.15453 15.25,-1.25413 4.63172,-0.0996 8.42132,-0.29349 8.42132,-0.43087 0,-2.51558 -7.27649,-27.521 -8.47359,-29.11924 -0.31985,-0.42703 -31.0086,30.76387 -31.40631,31.92022 -0.40174,1.16803 3.29176,0.91373 16.20858,-1.11598 z m 143.99805,-39.41402 c -3.59906,-2.99862 -7.68903,-4.23745 -18.49796,-5.60295 -4.76918,-0.60249 -11.29418,-2.01681 -14.5,-3.14294 -3.34851,-1.17624 -11.50103,-2.5971 -19.15893,-3.33911 -9.33044,-0.90407 -13.79503,-1.75649 -14.87948,-2.84094 -0.97616,-0.97616 -1.70519,-4.0035 -1.97065,-8.18328 -0.48335,-7.6107 1.31204,-12.47866 8.9664,-24.31108 11.13428,-17.21184 40.16714,-43.42179 48.21389,-43.52598 0.55,-0.007 2.0238,0.3167 3.27512,0.71959 1.32112,0.42537 2.15976,0.33289 2,-0.22056 -0.41805,-1.44824 4.55605,-9.14006 5.93047,-9.17072 1.83054,-0.0408 8.703,4.88665 9.47412,6.79286 0.37385,0.92413 0.71696,6.85524 0.76248,13.18024 0.0455,6.325 0.99715,19.375 2.11475,29 1.11759,9.625 2.3837,21.80382 2.81357,27.06404 0.42988,5.26022 1.11746,10.10748 1.52797,10.77169 0.42467,0.68714 -0.57788,3.35984 -2.32605,6.20099 C 856.38259,289.78305 855,292.45745 855,292.97984 855,294.2525 851.61076,296 849.14247,296 c -1.09396,0 -3.26105,-1.05981 -4.81574,-2.35513 z M 839.64064,259.25 c -0.35719,-3.7125 -1.0777,-10.125 -1.60113,-14.25 -0.52342,-4.125 -0.97145,-10.3125 -0.9956,-13.75 -0.0415,-5.90787 -0.1745,-6.25 -2.4296,-6.25 -3.5722,0 -6.7263,1.95347 -17.40526,10.77986 -11.16715,9.22988 -22.59474,20.78706 -21.8098,22.05713 0.29489,0.47714 3.59849,1.12426 7.34133,1.43804 3.74284,0.31379 9.49487,1.49799 12.78229,2.63157 5.27118,1.81762 15.27997,3.59232 22.37217,3.9669 2.36258,0.12479 2.38623,0.035 1.7456,-6.6235 z m 85.89789,-12.85433 c -2.85006,-2.85006 -5.76313,-9.65651 -6.13527,-14.33517 -0.19951,-2.50828 -0.6291,-6.92192 -0.95466,-9.8081 -0.6835,-6.0596 1.4627,-14.79233 4.5277,-18.42285 1.08168,-1.28125 3.82335,-4.73428 6.09262,-7.67339 7.17085,-9.28755 23.93438,-26.03678 38.43108,-38.39827 7.7,-6.56587 16.025,-13.66607 18.5,-15.77821 11.52406,-9.83453 29.0839,-23.41286 34.9843,-27.05193 3.5836,-2.21022 11.6907,-7.37387 18.0157,-11.47478 26.2975,-17.050406 57.365,-28.669589 70,-26.179937 2.475,0.487683 5.0625,0.925757 5.75,0.973498 0.6875,0.04774 1.25,0.436361 1.25,0.8636 0,0.427238 1.35,1.574261 3,2.54894 1.65,0.974679 3,2.184838 3,2.689241 0,2.013764 -4.486,4.609325 -9.8437,5.695522 -11.7491,2.38195 -32.7043,10.004536 -42.9314,15.616556 -41.1757,22.59483 -96.85154,69.61933 -119.39151,100.83961 -3.69106,5.11251 -10.15931,16.5 -9.37222,16.5 0.24023,0 -0.19742,1.51784 -0.97255,3.37298 -0.77512,1.85515 -1.12198,3.66033 -0.77078,4.01152 1.10789,1.1079 0.22974,10.81619 -1.2345,13.64771 -2.08243,4.02699 -8.92699,5.38129 -11.94481,2.36346 z M 596.60432,239.9995 c -4.66957,-1.45852 -8.23903,-5.67041 -10.02524,-11.82957 -0.90438,-3.11846 -2.07965,-7.05188 -2.6117,-8.74093 -1.2919,-4.10119 -1.23397,-28.72814 0.0888,-37.73637 3.4689,-23.62444 5.6941,-35.24994 10.03138,-52.40873 2.67153,-10.56885 5.58123,-20.91885 6.46602,-23 0.88479,-2.08114 1.78734,-4.4589 2.00568,-5.2839 3.8203,-14.435261 6.16285,-19.459623 9.57824,-20.543624 3.44689,-1.094 4.86255,1.254507 4.86255,8.066696 0,7.149179 -2.86817,24.920918 -6.04839,37.476928 -1.87808,7.415 -4.23502,19.0371 -7.90911,39 -1.32163,7.18095 -2.5148,40.36477 -1.65705,46.08468 0.59691,3.98053 1.12902,4.69168 5.07789,6.78655 4.548,2.41271 9.53666,8.41394 9.53666,11.47236 0,2.79892 -3.81217,9.46595 -5.73323,10.02674 -3.96313,1.1569 -10.94368,1.47836 -13.66245,0.62917 z m 105.41932,-2.42788 c -0.62231,-1.88561 -2.91263,-6.18418 -5.0896,-9.55238 -5.34394,-8.2681 -9.20842,-16.1644 -11.87189,-24.2578 -2.46293,-7.48404 -5.00336,-10.12998 -11.37279,-11.84509 -4.64214,-1.24999 -9.44046,-5.84704 -9.56037,-9.15933 -0.0449,-1.24136 -0.35427,-4.06113 -0.68741,-6.26616 -0.66446,-4.39799 2.78458,-15.19099 6.53971,-20.46459 C 671.09158,154.46702 672,152.7865 672,152.2918 c 0,-1.23145 5.60054,-6.30186 10.75,-9.73244 2.3375,-1.55725 4.27116,-3.33266 4.29703,-3.94536 0.39396,-9.33275 0.83905,-11.75871 2.91061,-15.864 1.75135,-3.47074 2.98122,-4.75 4.56661,-4.75 2.91073,0 6.47575,3.23006 6.47575,5.8673 0,3.3018 3.64086,2.66791 8.75739,-1.5247 8.09732,-6.63514 17.66162,-5.66308 20.20844,2.05387 0.97105,2.9423 0.84926,4.04542 -0.80435,7.28542 -1.07176,2.09996 -2.89655,4.67535 -4.05507,5.7231 -1.15853,1.04774 -2.10641,2.24802 -2.10641,2.66729 0,0.41927 2.1375,1.5336 4.75,2.47629 8.61695,3.10933 10.112,3.86571 9.52337,4.81813 -0.32031,0.51827 -0.096,0.64171 0.49849,0.2743 0.97946,-0.60534 7.91408,1.50966 15.72814,4.79693 1.65,0.69413 4.575,1.82016 6.5,2.5023 7.83306,2.77568 14.98318,6.65983 16.0995,8.7457 1.21434,2.26901 0.8403,3.92518 -2.66821,11.81407 -1.41664,3.18532 -2.06916,3.75284 -18.43129,16.03035 -21.64704,16.24309 -37,29.99097 -37,33.13181 0,2.51081 -4.27343,12.61127 -6.1148,14.45264 -1.11249,1.11249 -3.288,1.8852 -5.30765,1.8852 -3.01106,0 -3.55845,-0.4121 -4.55391,-3.42838 z m 27.12418,-52.68453 c 3.6563,-2.9629 8.25641,-6.51209 10.22247,-7.88709 5.81643,-4.06783 5.19024,-4.95417 -6.37029,-9.01672 -8.91228,-3.13192 -23.55329,-8.46142 -29.04539,-10.57287 l -4.54539,-1.74749 -7.45461,5.13683 c -12.05971,8.31012 -11.69206,7.93185 -9.39574,9.66707 1.06762,0.80676 3.29788,2.12769 4.95613,2.93541 5.81755,2.83367 8.28018,6.64859 14.04729,21.761 1.9014,4.98251 3.73343,9.50623 4.07118,10.05272 0.33775,0.54649 4.27089,-2.59184 8.74031,-6.97407 4.46942,-4.38223 11.11774,-10.39188 14.77404,-13.35479 z m 8.38498,-22.94016 c 0.35796,-0.57919 -0.38071,-1.94773 -1.64148,-3.04119 l -2.29232,-1.98812 2.2005,-0.57544 c 1.21028,-0.31649 2.2527,-1.31046 2.3165,-2.20881 0.10194,-1.43539 0.17034,-1.42694 0.56428,0.0696 0.41769,1.58683 3.87102,3.44385 5.56972,2.99512 2.03226,-0.53686 0.39851,1.56346 -2,2.57116 -2.45062,1.02959 -2.47784,1.08793 -0.25,0.53586 1.375,-0.34073 3.0625,-0.62378 3.75,-0.629 0.6875,-0.005 1.01751,-0.24198 0.73335,-0.52614 -0.28416,-0.28415 0.84084,-1.08743 2.5,-1.78506 1.65916,-0.69762 3.00976,-1.85263 3.00134,-2.56668 -0.0107,-0.90434 -0.23824,-0.95817 -0.75,-0.17743 -1.07456,1.63935 -8.23469,2.28779 -8.23469,0.74575 0,-0.6775 0.92369,-1.52498 2.05265,-1.8833 3.17773,-1.00857 0.61403,-3.26077 -4.6022,-4.04299 -2.4123,-0.36175 -4.90561,-1.2838 -5.54067,-2.04901 C 733.57293,145.78048 729,145.50264 729,147.03222 c 0,1.48651 -4.35744,2.93987 -5.1382,1.71377 -0.351,-0.55122 -1.12929,-0.69871 -1.72952,-0.32774 -0.77632,0.47979 -0.73916,1.23837 0.12875,2.62811 1.48227,2.3735 2.73897,2.52813 2.73897,0.33701 0,-1.1885 0.59587,-1.45695 2.25,-1.01366 1.2375,0.33164 3.7875,0.60913 5.66667,0.61664 1.87916,0.008 3.14666,0.28365 2.81666,0.61365 -0.33,0.33 -2.29365,0.6 -4.36367,0.6 -3.00895,0 -3.40884,0.19857 -1.99423,0.99023 0.9732,0.54462 2.86185,0.71605 4.19701,0.38095 1.33516,-0.33511 2.42756,-0.20319 2.42756,0.29314 0,0.49633 -0.9,1.13777 -2,1.42543 -2.38107,0.62266 -2.55224,2.01515 -0.5,4.06739 0.825,0.825 1.5,1.98215 1.5,2.57143 0,1.3767 1.68575,1.38892 2.5328,0.0184 z M 737,150.94098 c 0,-0.58246 0.45,-0.7809 1,-0.44098 0.55,0.33992 1,0.81648 1,1.05902 0,0.24254 -0.45,0.44098 -1,0.44098 -0.55,0 -1,-0.47656 -1,-1.05902 z m -9.86888,-4.28299 c -0.61257,-0.7381 -0.81767,-1.6381 -0.45578,-2 0.3619,-0.36189 -0.0499,-0.65799 -0.91505,-0.65799 -1.08072,0 -1.40936,0.62596 -1.05004,2 0.28766,1.1 1.20063,2 2.02883,2 1.14633,0 1.23992,-0.32038 0.39204,-1.34201 z M 719,139.62244 c 0,-0.20765 -0.6853,-0.9463 -1.52289,-1.64144 -1.27335,-1.05678 -1.41968,-0.99492 -0.89301,0.37756 0.53789,1.40173 2.4159,2.38422 2.4159,1.26388 z m 1.28567,-3.63802 c -0.58536,-2.23843 -2.22015,-3.71944 -1.91976,-1.73918 0.20738,1.36714 1.54242,3.75476 2.09949,3.75476 0.19105,0 0.11017,-0.90701 -0.17973,-2.01558 z m 6.00444,-2.9858 c 0.28785,-1.10076 0.12049,-1.75239 -0.37191,-1.44806 -0.49241,0.30432 -0.6273,-0.14506 -0.29976,-0.99862 C 725.94599,129.69837 726.61583,129 727.10699,129 727.59814,129 728,128.33465 728,127.52144 c 0,-1.20675 -0.45104,-1.27305 -2.45351,-0.36067 -2.81904,1.28444 -3.60921,3.56749 -2.10752,6.08923 1.36166,2.28659 2.20694,2.21206 2.85114,-0.25138 z M 720.5,126 c 0.33992,-0.55 0.14148,-1 -0.44098,-1 -0.58246,0 -1.05902,0.45 -1.05902,1 0,0.55 0.19844,1 0.44098,1 0.24254,0 0.7191,-0.45 1.05902,-1 z m 4.99292,-1.98855 c 0.35034,-0.56686 -0.0511,-0.7345 -0.94098,-0.39301 -1.73242,0.66479 -2.04939,1.38156 -0.61096,1.38156 0.51754,0 1.21592,-0.44485 1.55194,-0.98855 z M 388,128.94098 c 0,-0.58246 0.45,-0.7809 1,-0.44098 0.55,0.33992 1,0.81648 1,1.05902 0,0.24254 -0.45,0.44098 -1,0.44098 -0.55,0 -1,-0.47656 -1,-1.05902 z M 791.47485,93.557614 c -3.64586,-1.53297 -4.79946,-2.982791 -6.1913,-7.781094 -1.18121,-4.072146 0.65219,-12.785679 3.33608,-15.855261 C 789.37883,69.052952 790,67.896501 790,67.351368 c 0,-1.591317 4.97875,-6.529194 12.29625,-12.195307 7.76728,-6.014384 12.32451,-8.796641 27.43201,-16.74764 5.92445,-3.118013 12.59737,-6.922311 14.8287,-8.453996 12.42146,-8.526642 40.39113,-22.7039698 46.27848,-23.4577372 4.38251,-0.5610997 8.83075,1.9767841 9.48764,5.4130392 0.27114,1.418383 0.27906,2.925006 0.0176,3.34805 -0.26146,0.423044 -8.43257,6.017441 -18.15803,12.431992 -9.72547,6.414551 -21.20604,14.395987 -25.5124,17.736525 -4.30635,3.340538 -10.38135,7.881486 -13.5,10.090994 C 823.67614,69.328556 819.73539,72.762555 813.92708,81 806.475,91.568664 803.9491,93.822057 798.97524,94.33874 c -2.49451,0.25913 -5.85992,-0.09136 -7.50039,-0.781126 z"
       id="path1" />
  </g>
</svg>
